<?xml version="1.0" standalone="no"?>
<!DOCTYPE svg PUBLIC "-//W3C//DTD SVG 20010904//EN"
    "http://www.w3.org/TR/2001/REC-SVG-20010904/DTD/svg10.dtd">
<svg version="1.0" xmlns="http://www.w3.org/2000/svg"
     width="663.000000pt" height="663.000000pt" viewBox="0 0 663.000000 663.000000"
     preserveAspectRatio="xMidYMid meet">
    <metadata>
        Created by potrace 1.14, written by Peter Selinger 2001-2017
    </metadata>
    <g transform="translate(0.000000,663.000000) scale(0.100000,-0.100000)"
       fill="#000000" stroke="none">
        <path d="M3141 6549 c-101 -26 -144 -47 -391 -191 -118 -69 -237 -138 -265
-153 -27 -16 -89 -52 -138 -81 -49 -30 -91 -54 -93 -54 -3 0 -23 -11 -45 -26
-22 -14 -56 -34 -75 -45 -64 -36 -99 -56 -249 -144 -82 -48 -181 -105 -220
-128 -38 -22 -87 -51 -107 -64 -21 -12 -40 -23 -43 -23 -3 0 -22 -11 -43 -24
-37 -23 -116 -69 -387 -226 -416 -240 -408 -235 -482 -308 -208 -204 -266
-526 -144 -796 89 -197 237 -320 476 -397 25 -8 90 -13 170 -13 177 1 232 20
487 168 109 62 203 117 210 120 7 3 34 19 59 34 25 15 381 222 790 460 409
239 753 439 764 445 71 43 95 57 135 79 180 101 233 141 308 231 185 225 210
562 61 808 -102 168 -249 277 -440 328 -98 25 -239 26 -338 0z" />
        <path d="M5349 5280 c-36 -9 -91 -28 -122 -43 -47 -21 -476 -267 -667 -382
-30 -18 -71 -42 -90 -52 -19 -11 -118 -68 -220 -128 -102 -59 -214 -124 -250
-145 -118 -68 -363 -211 -455 -265 -49 -29 -274 -159 -500 -290 -225 -131
-464 -270 -530 -309 -123 -72 -167 -98 -245 -141 -25 -14 -58 -34 -75 -44 -16
-10 -49 -29 -72 -42 -23 -13 -146 -85 -274 -159 -244 -142 -295 -172 -344
-200 -40 -23 -616 -358 -730 -425 -179 -105 -292 -246 -346 -432 -30 -102 -32
-286 -4 -378 53 -177 148 -309 289 -402 133 -88 263 -124 421 -119 149 6 236
34 400 131 39 23 101 60 138 81 38 21 83 47 100 58 218 128 338 196 346 196 5
0 11 4 13 8 2 4 26 21 53 36 98 55 239 137 515 299 102 60 143 83 285 165 61
35 117 67 125 72 8 5 40 24 70 41 30 18 190 111 355 207 165 96 316 183 335
194 35 21 535 311 1200 698 201 117 379 220 395 230 164 93 429 249 465 274
126 86 214 209 272 381 29 88 33 265 7 365 -51 202 -191 378 -375 469 -137 68
-340 89 -485 51z" />
        <path d="M5465 2748 c-43 -4 -108 -16 -143 -28 -52 -16 -211 -95 -282 -140 -8
-5 -64 -38 -125 -73 -60 -36 -222 -130 -360 -209 -137 -80 -266 -154 -285
-165 -19 -11 -129 -75 -245 -143 -254 -149 -240 -140 -461 -268 -99 -57 -186
-108 -194 -113 -52 -32 -272 -159 -275 -159 -9 0 -176 -106 -220 -140 -245
-190 -329 -551 -196 -844 72 -160 190 -276 354 -350 97 -44 172 -60 286 -60
186 0 232 16 516 182 99 57 194 112 210 122 17 10 57 33 90 52 33 19 269 156
525 305 256 149 483 281 505 293 22 12 74 42 115 67 103 60 91 53 225 131 451
261 454 264 525 335 138 139 213 333 205 527 -9 197 -77 347 -221 485 -146
141 -347 212 -549 193z" />
    </g>
</svg>
